<mxfile host="app.diagrams.net" modified="2021-02-25T07:49:33.411Z" agent="5.0 (Macintosh; Intel Mac OS X 10_15_6) AppleWebKit/605.1.15 (KHTML, like Gecko) Version/14.0.3 Safari/605.1.15" etag="3u9T9kdy7Qc57pcVRSCw" version="14.4.3" type="github">
  <diagram id="SSCwWKKxAO6_7KtCK--5" name="Page-1">
    <mxGraphModel dx="1426" dy="800" grid="1" gridSize="10" guides="1" tooltips="1" connect="1" arrows="1" fold="1" page="1" pageScale="1" pageWidth="827" pageHeight="1169" math="0" shadow="0">
      <root>
        <mxCell id="0" />
        <mxCell id="1" parent="0" />
        <mxCell id="FIgb0fr20ddBhz2ca9hB-1" value="Ringa平台" style="rounded=0;whiteSpace=wrap;html=1;" vertex="1" parent="1">
          <mxGeometry x="160" y="310" width="200" height="110" as="geometry" />
        </mxCell>
        <mxCell id="FIgb0fr20ddBhz2ca9hB-3" value="APP" style="rounded=0;whiteSpace=wrap;html=1;" vertex="1" parent="1">
          <mxGeometry x="160" y="210" width="40" height="60" as="geometry" />
        </mxCell>
        <mxCell id="FIgb0fr20ddBhz2ca9hB-4" value="烟感管理系统" style="rounded=0;whiteSpace=wrap;html=1;" vertex="1" parent="1">
          <mxGeometry x="230" y="210" width="120" height="60" as="geometry" />
        </mxCell>
        <mxCell id="FIgb0fr20ddBhz2ca9hB-6" value="数据库" style="rounded=0;whiteSpace=wrap;html=1;align=center;" vertex="1" parent="1">
          <mxGeometry x="450" y="310" width="120" height="110" as="geometry" />
        </mxCell>
        <mxCell id="FIgb0fr20ddBhz2ca9hB-7" value="宁德烟感设备" style="rounded=0;whiteSpace=wrap;html=1;" vertex="1" parent="1">
          <mxGeometry x="190" y="460" width="60" height="50" as="geometry" />
        </mxCell>
        <mxCell id="FIgb0fr20ddBhz2ca9hB-8" value="其他设备" style="rounded=0;whiteSpace=wrap;html=1;" vertex="1" parent="1">
          <mxGeometry x="265" y="460" width="60" height="50" as="geometry" />
        </mxCell>
        <mxCell id="FIgb0fr20ddBhz2ca9hB-12" style="edgeStyle=orthogonalEdgeStyle;rounded=0;orthogonalLoop=1;jettySize=auto;html=1;exitX=0.5;exitY=1;exitDx=0;exitDy=0;entryX=0.5;entryY=0;entryDx=0;entryDy=0;" edge="1" parent="1" source="FIgb0fr20ddBhz2ca9hB-9" target="FIgb0fr20ddBhz2ca9hB-3">
          <mxGeometry relative="1" as="geometry" />
        </mxCell>
        <mxCell id="FIgb0fr20ddBhz2ca9hB-13" style="edgeStyle=orthogonalEdgeStyle;rounded=0;orthogonalLoop=1;jettySize=auto;html=1;exitX=0.5;exitY=1;exitDx=0;exitDy=0;entryX=0.375;entryY=0;entryDx=0;entryDy=0;entryPerimeter=0;" edge="1" parent="1" source="FIgb0fr20ddBhz2ca9hB-9" target="FIgb0fr20ddBhz2ca9hB-4">
          <mxGeometry relative="1" as="geometry" />
        </mxCell>
        <mxCell id="FIgb0fr20ddBhz2ca9hB-9" value="宁德用户" style="ellipse;whiteSpace=wrap;html=1;" vertex="1" parent="1">
          <mxGeometry x="250" y="120" width="70" height="50" as="geometry" />
        </mxCell>
        <mxCell id="FIgb0fr20ddBhz2ca9hB-14" style="edgeStyle=orthogonalEdgeStyle;rounded=0;orthogonalLoop=1;jettySize=auto;html=1;entryX=0.25;entryY=0;entryDx=0;entryDy=0;" edge="1" parent="1" source="FIgb0fr20ddBhz2ca9hB-10" target="FIgb0fr20ddBhz2ca9hB-3">
          <mxGeometry relative="1" as="geometry" />
        </mxCell>
        <mxCell id="FIgb0fr20ddBhz2ca9hB-10" value="其他用户" style="ellipse;whiteSpace=wrap;html=1;" vertex="1" parent="1">
          <mxGeometry x="120" y="120" width="70" height="50" as="geometry" />
        </mxCell>
        <mxCell id="FIgb0fr20ddBhz2ca9hB-17" value="" style="endArrow=classic;startArrow=classic;html=1;entryX=0.5;entryY=1;entryDx=0;entryDy=0;" edge="1" parent="1" target="FIgb0fr20ddBhz2ca9hB-4">
          <mxGeometry width="50" height="50" relative="1" as="geometry">
            <mxPoint x="290" y="308" as="sourcePoint" />
            <mxPoint x="414" y="240" as="targetPoint" />
          </mxGeometry>
        </mxCell>
        <mxCell id="FIgb0fr20ddBhz2ca9hB-18" value="" style="endArrow=classic;startArrow=classic;html=1;entryX=0.5;entryY=1;entryDx=0;entryDy=0;" edge="1" parent="1" target="FIgb0fr20ddBhz2ca9hB-3">
          <mxGeometry width="50" height="50" relative="1" as="geometry">
            <mxPoint x="180" y="310" as="sourcePoint" />
            <mxPoint x="100" y="270" as="targetPoint" />
          </mxGeometry>
        </mxCell>
        <mxCell id="FIgb0fr20ddBhz2ca9hB-19" value="" style="endArrow=classic;startArrow=classic;html=1;entryX=0.5;entryY=1;entryDx=0;entryDy=0;" edge="1" parent="1">
          <mxGeometry width="50" height="50" relative="1" as="geometry">
            <mxPoint x="219.5" y="460" as="sourcePoint" />
            <mxPoint x="219.5" y="420" as="targetPoint" />
          </mxGeometry>
        </mxCell>
        <mxCell id="FIgb0fr20ddBhz2ca9hB-20" value="" style="endArrow=classic;startArrow=classic;html=1;entryX=0.5;entryY=1;entryDx=0;entryDy=0;" edge="1" parent="1">
          <mxGeometry width="50" height="50" relative="1" as="geometry">
            <mxPoint x="294.5" y="460" as="sourcePoint" />
            <mxPoint x="294.5" y="420" as="targetPoint" />
          </mxGeometry>
        </mxCell>
        <mxCell id="FIgb0fr20ddBhz2ca9hB-23" value="" style="endArrow=classic;startArrow=classic;html=1;exitX=1;exitY=0.25;exitDx=0;exitDy=0;entryX=0;entryY=0.25;entryDx=0;entryDy=0;" edge="1" parent="1" source="FIgb0fr20ddBhz2ca9hB-1" target="FIgb0fr20ddBhz2ca9hB-6">
          <mxGeometry width="50" height="50" relative="1" as="geometry">
            <mxPoint x="390" y="420" as="sourcePoint" />
            <mxPoint x="440" y="370" as="targetPoint" />
          </mxGeometry>
        </mxCell>
        <mxCell id="FIgb0fr20ddBhz2ca9hB-24" value="" style="endArrow=classic;startArrow=classic;html=1;exitX=1;exitY=0.25;exitDx=0;exitDy=0;entryX=0;entryY=0.25;entryDx=0;entryDy=0;" edge="1" parent="1">
          <mxGeometry width="50" height="50" relative="1" as="geometry">
            <mxPoint x="360" y="390" as="sourcePoint" />
            <mxPoint x="450" y="390" as="targetPoint" />
          </mxGeometry>
        </mxCell>
        <mxCell id="FIgb0fr20ddBhz2ca9hB-25" value="设备数据" style="text;html=1;strokeColor=none;fillColor=none;align=center;verticalAlign=middle;whiteSpace=wrap;rounded=0;" vertex="1" parent="1">
          <mxGeometry x="380" y="370" width="50" height="20" as="geometry" />
        </mxCell>
        <mxCell id="FIgb0fr20ddBhz2ca9hB-26" value="用户数据" style="text;html=1;strokeColor=none;fillColor=none;align=center;verticalAlign=middle;whiteSpace=wrap;rounded=0;" vertex="1" parent="1">
          <mxGeometry x="380" y="317" width="50" height="20" as="geometry" />
        </mxCell>
      </root>
    </mxGraphModel>
  </diagram>
</mxfile>
